<?xml version="1.0" encoding="UTF-8"?>
<svg id="a" data-name="Layer 1" xmlns="http://www.w3.org/2000/svg" viewBox="0 0 4492.51 4056.12">
  <defs>
    <style>
      .b {
        fill: #f36d21;
        fill-rule: evenodd;
        stroke: #010101;
        stroke-miterlimit: 10;
        stroke-width: 33px;
      }

      .c {
        fill: #010101;
      }
    </style>
  </defs>
  <path class="c" d="m3949.33,1771.56c165.79-160.64,267.7-378.76,267.7-619.04,0-493.73-430.27-893.98-961.04-893.98s-961.04,400.25-961.04,893.98c0,223.71,88.33,428.23,234.33,585.02-362.57,191.41-603.72,531.39-603.72,918.91,0,598.2,574.63,1083.13,1283.48,1083.13s1283.48-484.93,1283.48-1083.13c0-365.52-214.56-688.74-543.18-884.89Zm-707.82-929.93c217.84,0,394.43,137.35,394.43,306.78s-176.59,306.78-394.43,306.78-394.43-137.35-394.43-306.78,176.59-306.78,394.43-306.78Zm-48.39,2375.86c-400.03,0-724.31-254.93-724.31-569.41s324.29-569.41,724.31-569.41,724.31,254.93,724.31,569.41-324.29,569.41-724.31,569.41Z"/>
  <path class="b" d="m2820.51,771.12c.52-.56.86-1.23,1-2-31.22-174.82-62.39-349.65-93.5-524.5-469.41,255.6-938.91,510.93-1408.5,766-1-330.83-1.33-661.83-1-993-219.83-1-439.83-1.33-660-1-.33,437.83,0,875.5,1,1313,.33,13.35,0,26.68-1,40-209.91,113.87-419.75,227.87-629.5,342-4.06,289.34-8.22,578.67-12.5,868,.33,6,.67,12,1,18,213.57,105.29,427.24,210.29,641,315v1127h660v-762c-.17-13.34,0-26.67.5-40,348.21,171.19,696.38,342.52,1044.5,514,71.6-172.65,142.1-345.65,211.5-519-418.49-200.49-836.99-400.83-1255.5-601-1.17-329.67-1.33-659.33-.5-989l1501.5-871.5ZM623.01,2259.62c-53.77-26.13-107.6-52.13-161.5-78,53.4-31.36,106.73-62.69,160-94,1.33,28.33,2,56.99,2,86-.17,28.67-.33,57.33-.5,86Z"/>
</svg>